<svg width="39" height="38" viewBox="0 0 39 38" fill="none" xmlns="http://www.w3.org/2000/svg">
<g clip-path="url(#clip0_40_263)">
<path d="M36.2967 0.526123C36.2195 2.39442 35.5845 4.19677 34.4735 5.7008C32.3743 8.5141 29.3609 9.15058 28.6382 9.27995L12.6622 9.57146C10.8569 10.1473 9.24348 11.2061 7.99687 12.6334C6.75027 14.0606 5.91798 15.8017 5.59019 17.6681C5.57327 19.527 6.05919 21.3559 6.99653 22.9612C7.93387 24.5666 9.28776 25.8887 10.9149 26.7876C9.62471 26.4426 6.29049 25.337 3.76525 22.1183C-0.321019 16.9126 1.22276 10.6409 1.42802 9.86296C2.2381 7.42376 3.71138 5.25831 5.68279 3.60923C7.6542 1.96014 10.0459 0.89257 12.5898 0.526123L36.2967 0.526123Z" fill="white"/>
<path d="M12.6621 9.57156C11.5651 9.67333 7.77376 10.5927 6.02299 12.1589C4.54821 13.4819 3.84963 14.353 3.36148 16.1262C3.00629 17.7538 3.11993 19.4488 3.68921 21.0145C5.41411 25.5906 10.5888 26.7204 10.9113 26.7774C10.3714 26.4721 6.6819 24.3108 6.02299 20.1383C5.36408 15.9657 8.02732 11.4793 12.6621 9.57156Z" fill="#B0C5FF"/>
<path d="M2.88708 37.5647C2.96425 35.6964 3.59928 33.894 4.7103 32.39C6.81121 29.5767 9.82288 28.9437 10.5473 28.8143L26.5216 28.5228C28.3265 27.9463 29.9395 26.8872 31.186 25.4601C32.4325 24.033 33.2651 22.2923 33.5936 20.4261C33.6098 18.5672 33.1234 16.7384 32.1858 15.1331C31.2482 13.5279 29.8943 12.2058 28.2671 11.3066C29.5574 11.6516 32.8916 12.7573 35.4168 15.9759C39.4996 21.1816 37.9559 27.4534 37.7506 28.2313C36.9405 30.6701 35.4674 32.8353 33.4964 34.4844C31.5253 36.1334 29.1341 37.2012 26.5905 37.5681L2.88708 37.5647Z" fill="white"/>
<path d="M26.5217 28.5194C27.6187 28.4176 31.41 27.4982 33.1608 25.932C34.6356 24.6108 35.3359 23.738 35.8223 21.9648C36.1781 20.3372 36.0645 18.642 35.4946 17.0764C33.7697 12.5003 28.595 11.3705 28.2724 11.3136C28.8123 11.6189 32.5019 13.7802 33.1608 17.9527C33.8197 22.1252 31.1582 26.6116 26.5217 28.5194Z" fill="#B0C5FF"/>
<path d="M13.7384 21.042C14.8263 21.042 15.7083 20.1601 15.7083 19.0722C15.7083 17.9843 14.8263 17.1024 13.7384 17.1024C12.6505 17.1024 11.7686 17.9843 11.7686 19.0722C11.7686 20.1601 12.6505 21.042 13.7384 21.042Z" fill="white"/>
<path d="M19.7015 21.042C20.7894 21.042 21.6713 20.1601 21.6713 19.0722C21.6713 17.9843 20.7894 17.1024 19.7015 17.1024C18.6135 17.1024 17.7316 17.9843 17.7316 19.0722C17.7316 20.1601 18.6135 21.042 19.7015 21.042Z" fill="white"/>
<path d="M25.4454 21.042C26.5333 21.042 27.4152 20.1601 27.4152 19.0722C27.4152 17.9843 26.5333 17.1024 25.4454 17.1024C24.3574 17.1024 23.4755 17.9843 23.4755 19.0722C23.4755 20.1601 24.3574 21.042 25.4454 21.042Z" fill="white"/>
</g>
<defs>
<clipPath id="clip0_40_263">
<rect width="37.2387" height="37.0386" fill="white" transform="translate(0.972534 0.526123)"/>
</clipPath>
</defs>
</svg>
