<svg width="27" height="28" viewBox="0 0 27 28" fill="none" xmlns="http://www.w3.org/2000/svg">
<g clip-path="url(#clip0_40_367)">
<path d="M24.9884 0.899414C24.9338 2.22104 24.4846 3.49603 23.6987 4.55998C22.2137 6.55011 20.082 7.00036 19.5708 7.09187L8.26937 7.29808C6.99225 7.70541 5.85094 8.45446 4.96909 9.46407C4.08724 10.4737 3.49848 11.7053 3.2666 13.0256C3.25463 14.3406 3.59837 15.6344 4.26145 16.77C4.92452 17.9056 5.88226 18.8409 7.03332 19.4768C6.12062 19.2327 3.76199 18.4506 1.97564 16.1737C-0.914988 12.4912 0.17708 8.0546 0.322283 7.50429C0.895336 5.7788 1.93753 4.24696 3.33211 3.0804C4.72668 1.91384 6.41854 1.15864 8.21812 0.899414L24.9884 0.899414Z" fill="#312D81"/>
<path d="M8.26923 7.2981C7.49319 7.37009 4.81122 8.02045 3.57273 9.12838C2.52946 10.0643 2.03529 10.6805 1.68998 11.9348C1.43871 13.0862 1.5191 14.2853 1.92181 15.3928C3.142 18.63 6.80257 19.4292 7.03074 19.4695C6.64882 19.2535 4.03884 17.7246 3.57273 14.773C3.10661 11.8213 4.99058 8.64762 8.26923 7.2981Z" fill="#6366F1"/>
<path d="M1.35437 27.1005C1.40896 25.7789 1.85818 24.5039 2.64411 23.4399C4.1303 21.4498 6.26075 21.002 6.77323 20.9105L18.0734 20.7043C19.3502 20.2965 20.4913 19.5473 21.3731 18.5378C22.2548 17.5282 22.8438 16.2968 23.0762 14.9767C23.0876 13.6617 22.7435 12.368 22.0803 11.2324C21.417 10.0969 20.4592 9.16162 19.3082 8.52557C20.2209 8.76961 22.5795 9.55175 24.3659 11.8286C27.2541 15.5112 26.162 19.9478 26.0168 20.4981C25.4437 22.2233 24.4017 23.755 23.0074 24.9215C21.6131 26.088 19.9215 26.8434 18.1222 27.1029L1.35437 27.1005Z" fill="#312D81"/>
<path d="M18.0734 20.7018C18.8495 20.6298 21.5314 19.9795 22.7699 18.8716C23.8132 17.9369 24.3086 17.3195 24.6527 16.0651C24.9044 14.9138 24.824 13.7146 24.4208 12.6071C23.2007 9.36995 19.5401 8.57072 19.3119 8.53046C19.6938 8.74643 22.3038 10.2753 22.7699 13.227C23.236 16.1786 21.3533 19.3523 18.0734 20.7018Z" fill="#6366F1"/>
<path d="M9.0306 15.4123C9.80019 15.4123 10.4241 14.7885 10.4241 14.0189C10.4241 13.2493 9.80019 12.6254 9.0306 12.6254C8.26102 12.6254 7.63715 13.2493 7.63715 14.0189C7.63715 14.7885 8.26102 15.4123 9.0306 15.4123Z" fill="#312D81"/>
<path d="M13.2488 15.4123C14.0184 15.4123 14.6423 14.7885 14.6423 14.0189C14.6423 13.2493 14.0184 12.6254 13.2488 12.6254C12.4792 12.6254 11.8553 13.2493 11.8553 14.0189C11.8553 14.7885 12.4792 15.4123 13.2488 15.4123Z" fill="#312D81"/>
<path d="M17.312 15.4123C18.0816 15.4123 18.7055 14.7885 18.7055 14.0189C18.7055 13.2493 18.0816 12.6254 17.312 12.6254C16.5425 12.6254 15.9186 13.2493 15.9186 14.0189C15.9186 14.7885 16.5425 15.4123 17.312 15.4123Z" fill="#312D81"/>
</g>
<defs>
<clipPath id="clip0_40_367">
<rect width="26.3427" height="26.2011" fill="white" transform="translate(0 0.899414)"/>
</clipPath>
</defs>
</svg>
