<svg width="30" height="30" viewBox="0 0 30 30" fill="none" xmlns="http://www.w3.org/2000/svg">
<circle cx="15" cy="15" r="15" fill="#06B6D4"/>
<path d="M14.8462 17L13 15.1539M14.8462 17C15.7058 16.6731 16.5304 16.2608 17.3077 15.7693M14.8462 17V20.0769C14.8462 20.0769 16.7108 19.7384 17.3077 18.8461C17.9723 17.8492 17.3077 15.7693 17.3077 15.7693M13 15.1539C13.3275 14.3043 13.7398 13.49 14.2308 12.7232C14.9478 11.5767 15.9462 10.6328 17.1311 9.98112C18.3159 9.32946 19.6478 8.99177 21 9.00015C21 10.674 20.52 13.6155 17.3077 15.7693M13 15.1539L9.92308 15.1539C9.92308 15.1539 10.2615 13.2893 11.1538 12.6924C12.1508 12.0278 14.2308 12.6924 14.2308 12.6924M10.2308 17.9231C9.30769 18.6985 9 21 9 21C9 21 11.3015 20.6923 12.0769 19.7693C12.5138 19.2523 12.5077 18.4585 12.0215 17.9785C11.7823 17.7502 11.4673 17.6183 11.1368 17.6081C10.8063 17.5979 10.4836 17.71 10.2308 17.9231Z" stroke="white" stroke-width="1.125" stroke-linecap="round" stroke-linejoin="round"/>
</svg>
